<svg xmlns="http://www.w3.org/2000/svg" shape-rendering="geometricPrecision" text-rendering="geometricPrecision" image-rendering="optimizeQuality" fill-rule="evenodd" clip-rule="evenodd" viewBox="0 0 512 254.52"><path d="M211.54 237.51c7.62-9.25 13.36-18.56 17.32-27.92 4.11-9.71 6.3-19.42 6.7-29.11.79-18.86-4.13-35.5-13.28-50.08-9.72-15.52-24.06-28.35-41.19-38.8-19.89-12.14-39.28-18.54-58.59-24.91-11.95-3.94-23.89-7.88-35.42-13.13l-.02.05c-6.99-3.18-14.69-7.4-24.14-13.6-9.62-6.33-21.34-14.94-36.3-26.89L10.2 0 2.76 19.71c-7.03 18.66-.33 41.54 16.58 62.61.93 1.16 1.9 2.32 2.89 3.48l.71 18.48c.84 22.01 9.92 38.33 28.37 50.44 3 1.97 6.25 3.8 9.76 5.51l2.58 8.59c12.42 41.49 42.39 43.87 73.43 46.33 19.45 1.55 39.52 3.14 49.4 20.26l11.04 19.11 14.02-17.01zm88.92 0c-7.62-9.25-13.36-18.56-17.32-27.92-4.11-9.71-6.3-19.42-6.7-29.11-.79-18.86 4.13-35.5 13.27-50.08 9.73-15.52 24.07-28.35 41.2-38.8 19.89-12.14 39.28-18.54 58.59-24.91 11.95-3.94 23.89-7.88 35.42-13.13l.02.05c6.99-3.18 14.69-7.4 24.14-13.6 9.62-6.33 21.34-14.94 36.3-26.89L501.8 0l7.44 19.71c7.03 18.66.33 41.54-16.58 62.61-.93 1.16-1.9 2.32-2.89 3.48l-.71 18.48c-.84 22.01-9.92 38.33-28.37 50.44-3 1.97-6.25 3.8-9.76 5.51l-2.58 8.59c-12.42 41.49-42.39 43.87-73.43 46.33-19.45 1.55-39.52 3.14-49.4 20.26l-11.04 19.11-14.02-17.01zM256 1.72c16.44 0 31.47 3.66 42.49 9.56h.02c12.35 6.62 19.98 16.24 19.98 27.27 0 11.03-7.63 20.65-19.98 27.27l-.42.22c-10.98 5.77-25.85 9.34-42.09 9.34-16.43 0-31.47-3.65-42.48-9.56h-.03c-12.34-6.62-19.98-16.24-19.98-27.27 0-11.03 7.64-20.65 19.98-27.27l.43-.21c10.97-5.78 25.84-9.35 42.08-9.35zm35.75 22.13c-9-4.83-21.63-7.82-35.75-7.82-13.93 0-26.42 2.92-35.41 7.63l-.34.2c-7.68 4.11-12.43 9.34-12.43 14.69s4.75 10.58 12.43 14.7c9.01 4.83 21.64 7.82 35.75 7.82 13.94 0 26.43-2.91 35.41-7.63l.34-.19c7.68-4.12 12.44-9.35 12.44-14.7s-4.76-10.58-12.44-14.7zm20.52 203.95c-13.38-16.22-19.89-32.19-20.55-47.92-1.37-32.94 18.15-57.51 47.16-75.22 30.51-18.62 61.88-23.25 92.39-37.13 15.23-6.94 33.41-18.27 63.64-42.43 9.88 26.19-21.57 68.27-72.62 90.51 15.82.62 32.86.14 51.49-11.87-1.28 33.28-27.47 49.37-85.62 57.28 12.23 4.08 26.85 8.69 45.51 3.42-17.96 59.98-92.11 12.63-121.4 63.36zm-112.54 0c13.38-16.22 19.89-32.19 20.55-47.92 1.37-32.94-18.15-57.51-47.16-75.22-30.51-18.62-61.88-23.25-92.39-37.13C65.5 60.59 47.32 49.26 17.09 25.1c-9.88 26.19 21.57 68.27 72.62 90.51-15.82.62-32.86.14-51.49-11.87 1.28 33.28 27.47 49.37 85.62 57.28-12.23 4.08-26.85 8.69-45.51 3.42 17.96 59.98 92.11 12.63 121.4 63.36z" fill="#ffffff"/></svg>