<?xml version="1.0" encoding="utf-8"?><svg version="1.1" id="Layer_1" xmlns="http://www.w3.org/2000/svg" xmlns:xlink="http://www.w3.org/1999/xlink" x="0px" y="0px" viewBox="0 0 122.88 96.04" style="enable-background:new 0 0 122.88 96.04" xml:space="preserve"><style type="text/css">.st0{fill-rule:evenodd;clip-rule:evenodd;}</style><g><path class="st0" d="M59.07,96.03L1.15,29.77h38.01L59.07,96.03L59.07,96.03L59.07,96.03z M61.18,0.11L45.89,25.24H77.6L61.18,0.11 L61.18,0.11z M82.18,25.07L65.17,0h31.45L82.18,25.07L82.18,25.07z M41.65,25.31L56.55,0H24.61L41.65,25.31L41.65,25.31z M101.71,2.98L86.67,25.24h36.21L101.71,2.98L101.71,2.98z M22.26,2.98l15.81,22.26H0L22.26,2.98L22.26,2.98L22.26,2.98z M44.73,29.57h33.63L62.04,95.04L44.73,29.57L44.73,29.57L44.73,29.57z M64.91,96.04l57.23-66.27l-38.01,0L64.91,96.04L64.91,96.04 L64.91,96.04z"/></g></svg>