<svg xmlns="http://www.w3.org/2000/svg" id="Layer_1" data-name="Layer 1" viewBox="0 0 122.88 122.65"><defs fill="#ffffff"><style>.cls-1{fill-rule:evenodd;}</style></defs><title>arrow-hunting-weapon</title><polygon class="cls-1" points="25.25 100.43 27.41 98.26 28.19 109.77 36.83 101.13 35.99 89.69 37.98 87.7 38.76 99.2 49.28 88.68 48.44 77.24 108.65 17.03 109.45 28.77 114.78 23.43 122.88 0 99.7 8.35 94.37 13.69 105.84 14.23 45.64 74.44 33.97 73.36 23.44 83.89 35.19 84.88 33.19 86.88 21.52 85.81 12.88 94.46 24.62 95.45 22.44 97.63 10.78 96.56 0 107.33 14.36 108.55 15.31 122.65 26.09 111.87 25.25 100.43 25.25 100.43" fill="#ffffff"/></svg>