<svg xmlns="http://www.w3.org/2000/svg" xmlns:xlink="http://www.w3.org/1999/xlink" version="1.1" id="Layer_1" x="0px" y="0px" viewBox="0 0 101.83 122.88" style="enable-background:new 0 0 101.83 122.88" xml:space="preserve"><g><path d="M65.15,61.65c5.64,6.42,10.79,12.84,15.42,19.27c9.07,12.59,16.15,25.2,21.06,37.83c0.61,1.57-0.17,3.33-1.74,3.93 c-1.57,0.6-3.33-0.17-3.93-1.74c-4.72-12.14-11.55-24.29-20.32-36.47c-4.16-5.77-8.76-11.55-13.77-17.34 c1.91,4.91,2.65,9.92,1.38,14.42c-2.47,8.77-11.09,9.95-18.8,2.96c-8.62,8.27-17.66,4.38-19.35-4.76 c-1.47-7.96,2.91-17.12,8.99-24.74C26.11,61.17,16.07,65.8,7.7,63.51c-8.78-2.4-10.03-11.02-3.09-18.78 C-3.72,36.18,0.1,27.1,9.23,25.35c8.08-1.55,17.43,2.93,25.17,9.1c-6.3-8.03-11.1-18.26-8.77-26.76C28.03-1.09,36.65-2.34,44.4,4.6 c8.56-8.33,17.63-4.5,19.38,4.63c1.59,8.3-3.19,17.95-9.63,25.8c8.21-6.43,18.84-11.42,27.53-8.9c8.75,2.53,9.87,11.16,2.83,18.82 c8.21,8.67,4.25,17.7-4.89,19.32C75.01,65.09,70.01,63.94,65.15,61.65L65.15,61.65z" fill="#ffffff"/></g></svg>