<svg xmlns="http://www.w3.org/2000/svg" xmlns:xlink="http://www.w3.org/1999/xlink" version="1.1" id="Layer_1" x="0px" y="0px" viewBox="0 0 122.88 96.86" style="enable-background:new 0 0 122.88 96.86" xml:space="preserve"><style type="text/css"><![CDATA[
	.st0{fill:#ffffff;}
	.st1{fill:#D8453E;}
]]></style><g><path class="st0" d="M87.08,15.79c9.28,1.11,17.61,5.34,23.89,11.62c7.36,7.36,11.91,17.53,11.91,28.76 c0,11.23-4.55,21.4-11.91,28.76c-7.36,7.36-17.53,11.92-28.77,11.92s-21.4-4.55-28.76-11.92c-7.36-7.36-11.91-17.53-11.91-28.76 c0-11.23,4.55-21.4,11.91-28.76c6.74-6.74,15.84-11.13,25.96-11.82v-5.19c0-0.1,0.01-0.21,0.01-0.31h-7.62 c-1.25,0-2.27-1.02-2.27-2.27V2.27c0-1.25,1.02-2.27,2.27-2.27h22.9c1.25,0,2.27,1.02,2.27,2.27v5.56c0,1.25-1.02,2.27-2.27,2.27 h-7.62c0.01,0.1,0.01,0.2,0.01,0.31L87.08,15.79L87.08,15.79L87.08,15.79z M85.47,50.1c2.16,1.16,3.63,3.45,3.63,6.08 c0,3.81-3.09,6.9-6.9,6.9c-3.81,0-6.9-3.09-6.9-6.9c0-2.63,1.47-4.91,3.63-6.08l0-15.81c0-1.8,1.46-3.27,3.26-3.27 c1.8,0,3.27,1.46,3.27,3.27V50.1L85.47,50.1L85.47,50.1z M118.74,28.08c1.58-3.77,1.39-7.71-0.87-10.36 c-2.71-3.17-7.61-3.54-12.16-1.3C110.53,19.72,114.9,23.57,118.74,28.08L118.74,28.08L118.74,28.08z M45.67,28.08 c-1.58-3.77-1.39-7.71,0.87-10.36c2.71-3.17,7.61-3.54,12.16-1.3C53.88,19.72,49.5,23.57,45.67,28.08L45.67,28.08L45.67,28.08z M106.35,32.04c-6.18-6.18-14.71-10-24.14-10c-9.43,0-17.97,3.82-24.14,10c-6.18,6.18-10,14.72-10,24.14 c0,9.43,3.82,17.97,10,24.15c6.18,6.18,14.71,10,24.14,10c9.43,0,17.97-3.82,24.15-10c6.18-6.18,10-14.71,10-24.15 C116.35,46.75,112.53,38.21,106.35,32.04L106.35,32.04L106.35,32.04z" fill="#ffffff"/><path class="st1" d="M3.26,40.99c-1.8,0-3.26-1.46-3.26-3.27c0-1.8,1.46-3.27,3.26-3.27h32.22l-1.63,6.53H3.26L3.26,40.99 L3.26,40.99z" fill="#ffffff"/><path class="st1" d="M10.04,59.7c-1.8,0-3.27-1.46-3.27-3.26s1.46-3.27,3.27-3.27h20.82l0.54,6.53H10.04L10.04,59.7L10.04,59.7z" fill="#ffffff"/><path class="st1" d="M17.34,78.9c-1.8,0-3.27-1.46-3.27-3.27c0-1.8,1.46-3.27,3.27-3.27h16.27l2.18,6.53H17.34L17.34,78.9 L17.34,78.9z" fill="#ffffff"/></g></svg>