<svg xmlns="http://www.w3.org/2000/svg" id="Layer_1" data-name="Layer 1" viewBox="0 0 122.88 122.88"><defs fill="#ffffff"><style>.cls-1{fill:#ffffff;}.cls-2{fill:#ff1200;}</style></defs><title>high-risk</title><path class="cls-1" d="M42.89,114.9c1.43,2.23,2.87,4.3,4.3,6.22l-.09.65a25.88,25.88,0,0,1-6,1.11l-.56-.48-.36-.75q-.24-.48-1-2c-.48-1-.9-2-1.25-2.89H36l.21,5.77h-6l.3-5.68-.3-13.66,9.18,0a7.37,7.37,0,0,1,5,1.54,5.58,5.58,0,0,1,1.77,4.44,6.37,6.37,0,0,1-.86,3.2,8,8,0,0,1-2.37,2.57Zm-3.08-5.17A2.38,2.38,0,0,0,39.2,108a3,3,0,0,0-2-.64l-1.08.08-.12,5,2.18.12a2.68,2.68,0,0,0,1.23-1.05,3.38,3.38,0,0,0,.39-1.73ZM55,116.24l.24,6.28h-6l.3-5.68-.3-13.66h6.1L55,116.24Zm11.53-13.42a15.84,15.84,0,0,1,5.62,1.05l-1,4.87-.84.36a13.28,13.28,0,0,0-2.48-1.23,6,6,0,0,0-2-.45,1.93,1.93,0,0,0-1.09.27.82.82,0,0,0-.4.72,1.15,1.15,0,0,0,.61,1,15.55,15.55,0,0,0,2,1.06,30,30,0,0,1,2.75,1.39,6.42,6.42,0,0,1,1.88,1.77,4.58,4.58,0,0,1,.81,2.76,5.77,5.77,0,0,1-1,3.31A6.81,6.81,0,0,1,68.64,122a10,10,0,0,1-4.3.87,19.81,19.81,0,0,1-6.4-1.14l.87-5.2.59-.36a12.13,12.13,0,0,0,3,1.66,7.49,7.49,0,0,0,2.61.62,2,2,0,0,0,1.21-.29.85.85,0,0,0,.38-.7,1.26,1.26,0,0,0-.65-1.06,13,13,0,0,0-2.07-1.06A25.07,25.07,0,0,1,61.12,114a6.06,6.06,0,0,1-1.84-1.77,4.8,4.8,0,0,1-.77-2.76,6,6,0,0,1,1-3.4,7,7,0,0,1,2.84-2.37,9.55,9.55,0,0,1,4.16-.87Zm19.93,9.51q2.74,4.31,6.28,8.94l-.09.65a50.28,50.28,0,0,1-6,1l-.66-.36q-3-5.23-5-8.88l-.06,2.6.24,6.28h-6l.3-5.68-.3-13.66h6.1l-.21,8.07,3.7-6,1-2.09h6.34l-5.68,9.15Z" fill="#ffffff"/><path class="cls-2" d="M69.35,55.26,93.09,83.93a.54.54,0,0,1,0,.72L90.26,88.1a.55.55,0,0,1-.72.11L59.1,68.13c-4.07-2.93-5.24-6.46-4.66-9.5a8.24,8.24,0,0,1,2-4,8.54,8.54,0,0,1,3.73-2.42c2.87-.91,6.29-.24,9.15,3l0,0Z" fill="#ffffff"/><path class="cls-1" d="M19.33,106.17A61.43,61.43,0,0,1,61.44,0,60.91,60.91,0,0,1,84.87,4.66,62,62,0,0,1,118.2,38a60.85,60.85,0,0,1-5.58,57.24,62.84,62.84,0,0,1-7.6,9.3.5.5,0,0,1-.7,0l-3.07-3.06a.45.45,0,0,1-.17-.11l-8.56-8.56a.5.5,0,0,1,0-.7L97,87.62a.5.5,0,0,1,.7,0l6.61,6.61a54.73,54.73,0,0,0,3.85-5.7,53.34,53.34,0,0,0,7.34-26H106.4a.5.5,0,0,1-.5-.5V55.7a.5.5,0,0,1,.5-.5h8.76a53.73,53.73,0,0,0-4.72-16.58,54.59,54.59,0,0,0-9.82-14.37l-5.86,5.86a.5.5,0,0,1-.7,0l-4.49-4.49a.5.5,0,0,1,0-.7l5.65-5.65a54.23,54.23,0,0,0-14.87-8.5c-5.25-2-8.73-3.15-14.6-3.38v8a.5.5,0,0,1-.5.5H58.89a.5.5,0,0,1-.5-.5V7.59c-5.83.55-13.55,2-18.69,4.29a54.32,54.32,0,0,0-14.42,9.3l5.87,5.87a.5.5,0,0,1,0,.7l-4.49,4.49a.5.5,0,0,1-.7,0l-5.8-5.8a54,54,0,0,0-9,14.86A54.62,54.62,0,0,0,7.44,58.23h9a.5.5,0,0,1,.5.5v6.36a.5.5,0,0,1-.5.5h-9a53.66,53.66,0,0,0,1.35,8.58,53.12,53.12,0,0,0,2.91,8.72,54.31,54.31,0,0,0,3.64,7,52.69,52.69,0,0,0,4.28,6l7.24-7.24a.5.5,0,0,1,.7,0l4.49,4.49a.5.5,0,0,1,0,.7C28,97.93,24,101.9,20,106.15a.48.48,0,0,1-.69,0Z" fill="#ffffff"/></svg>