<svg xmlns="http://www.w3.org/2000/svg" shape-rendering="geometricPrecision" text-rendering="geometricPrecision" image-rendering="optimizeQuality" fill-rule="evenodd" clip-rule="evenodd" viewBox="0 0 514 511.58"><path fill-rule="nonzero" d="M289.035 13.017L353.246.121c4.784-.988 7.75 4.319 4.484 7.458l-27.629 26.492 23.196 23.479c2.223 2.166 3.47 4.044 3.398 6.058-.086 2.389-1.665 4.04-5.108 5.22l-1.277.399c-23.874 5.765-50.334 9.945-74.657 14.724-6.673 1.386-10.599-4.402-5.446-9.371l26.343-25.406-.878-.834c-5.589-5.311-15.591-14.818-20.813-21.172-2.451-2.985-3.569-5.349-3.099-7.509.555-2.556 2.727-3.936 6.768-4.538l10.507-2.104zm-58.498 40.866c17.63 22.167 35.604 44.276 52.981 66.618 3.654 4.646 5.104 10.372 4.485 15.839-.622 5.506-3.327 10.783-7.974 14.479-16.212 12.887-32.609 25.611-48.901 38.407a7.533 7.533 0 01-10.481-1.152l-71.751-87.695a7.537 7.537 0 011.06-10.603l50.125-39.401a21.78 21.78 0 0115.958-4.517c5.504.627 10.778 3.347 14.498 8.025zm41.114 75.878l-52.895-66.51a6.583 6.583 0 00-4.427-2.431 6.751 6.751 0 00-4.941 1.397L165.422 96.78l62.21 76.039 43.03-33.781a6.463 6.463 0 002.379-4.348c.192-1.699-.247-3.468-1.361-4.885l-.029-.044zm175.24 163.054l-65.323-52.62c-1.366-1.095-3.082-1.534-4.733-1.357a6.358 6.358 0 00-4.297 2.32l-34.824 43.474 73.993 62.372 36.151-45.107c1.106-1.379 1.549-3.106 1.372-4.765a6.408 6.408 0 00-2.339-4.317zm-55.868-64.32l65.293 52.595c4.612 3.719 7.287 8.975 7.876 14.449a21.508 21.508 0 01-4.61 15.783l-41.074 51.22a7.509 7.509 0 01-10.575.914l-85.377-71.951a7.524 7.524 0 01-1.15-10.574l39.408-49.198c3.709-4.606 8.963-7.274 14.428-7.858a21.477 21.477 0 0115.751 4.595l.03.025zM356.93 417.439l4.893-5.549.403-.424c9.106-10.306 14.818-16.799 24.505-29.592l-74.123-62.468c-10.918 13.902-23.151 29.112-36.584 42.61-37.99 38.176-84.724 62.664-137.072 10.57-37.409-37.226-35.291-72.583-16.496-103.982 16.433-27.45 45.816-51.218 71.67-70.269l-61.266-75.052c-7.061 5.228-12.488 9.37-17.432 13.323-6.247 4.993-12.338 10.169-20.479 17.244-76.264 66.254-91.975 144.156-71.85 208.853 9.144 29.402 25.651 56.123 47.201 77.817 21.571 21.715 48.168 38.397 77.469 47.701 64.456 20.468 142.341 5.174 209.161-70.782zm16.203 4.408l-4.893 5.549c-71.394 81.155-155.28 97.283-225.009 75.141-31.676-10.058-60.375-28.038-83.595-51.414-23.241-23.397-41.042-52.217-50.91-83.943-21.761-69.959-5.157-153.864 76.384-224.701 7.924-6.884 14.069-12.097 20.95-17.598 6.915-5.527 13.989-10.886 23.649-17.962 3.212-2.35 7.742-1.796 10.28 1.324l71.081 87.073a7.53 7.53 0 01-1.68 10.515c-26.122 18.962-57.707 43.222-74.031 70.492-15.341 25.627-16.893 54.663 14.196 85.599 43.577 43.365 83.3 22.153 115.805-10.509 14.611-14.681 27.918-31.682 39.572-46.574l.815-1.021a7.508 7.508 0 0110.574-.914l85.193 71.799a7.519 7.519 0 011.521 10.485c-12.736 17.159-18.879 24.148-29.55 36.229l-.352.43zm70.793-252.908l64.212-12.897c4.785-.987 7.751 4.32 4.484 7.459l-27.629 26.492 23.196 23.479c2.223 2.166 3.47 4.044 3.397 6.058-.085 2.388-1.664 4.04-5.107 5.22l-1.277.399c-23.874 5.765-50.334 9.945-74.657 14.724-6.673 1.386-10.599-4.402-5.446-9.371l26.343-25.406-.878-.834c-5.588-5.311-15.591-14.818-20.813-21.172-2.451-2.985-3.568-5.349-3.099-7.509.555-2.556 2.727-3.936 6.768-4.538l10.506-2.104z" fill="#ffffff"/></svg>