<svg xmlns="http://www.w3.org/2000/svg" xmlns:xlink="http://www.w3.org/1999/xlink" version="1.1" id="Layer_1" x="0px" y="0px" viewBox="0 0 122.88 101.91" style="enable-background:new 0 0 122.88 101.91" xml:space="preserve"><style type="text/css">.st0{fill-rule:evenodd;clip-rule:evenodd;}</style><g><path class="st0" d="M3.34,0h116.2c1.84,0,3.34,1.5,3.34,3.34v76.98c0,1.84-1.5,3.34-3.34,3.34H3.34C1.5,83.66,0,82.16,0,80.32 V3.34C0,1.5,1.5,0,3.34,0L3.34,0L3.34,0z M46.29,88.27h30.3c0.08,5.24,2.24,9.94,8.09,13.63H38.2 C42.88,98.51,46.31,94.39,46.29,88.27L46.29,88.27L46.29,88.27z M61.44,72.41c2.37,0,4.29,1.92,4.29,4.29 c0,2.37-1.92,4.29-4.29,4.29c-2.37,0-4.29-1.92-4.29-4.29C57.15,74.33,59.07,72.41,61.44,72.41L61.44,72.41z M10.05,6.29h102.79 c1.63,0,2.95,1.33,2.95,2.95v57.52c0,1.62-1.33,2.95-2.95,2.95H10.05c-1.62,0-2.95-1.33-2.95-2.95V9.24 C7.09,7.62,8.42,6.29,10.05,6.29L10.05,6.29L10.05,6.29z" fill="#ffffff"/></g></svg>