<svg xmlns="http://www.w3.org/2000/svg" xmlns:xlink="http://www.w3.org/1999/xlink" version="1.1" id="Layer_1" x="0px" y="0px" width="111.811px" height="122.88px" viewBox="0 0 111.811 122.88" enable-background="new 0 0 111.811 122.88" xml:space="preserve"><g><path fill-rule="evenodd" clip-rule="evenodd" d="M55.713,0c20.848,13.215,39.682,19.467,55.846,17.989 c2.823,57.098-18.263,90.818-55.63,104.891C19.844,109.708-1.5,77.439,0.083,17.123C19.058,18.116,37.674,14.014,55.713,0L55.713,0 z M56.163,19.543c14.217,9.011,27.061,13.274,38.083,12.268c1.925,38.936-12.454,61.93-37.935,71.526 c-0.161-0.059-0.319-0.12-0.479-0.18V19.796L56.163,19.543L56.163,19.543z M55.735,7.055 c18.454,11.697,35.126,17.232,49.434,15.923c2.498,50.541-16.166,80.39-49.241,92.846C23.986,104.165,5.091,75.603,6.493,22.211 C23.29,23.091,39.768,19.46,55.735,7.055L55.735,7.055z" fill="#ffffff"/></g></svg>