<svg xmlns="http://www.w3.org/2000/svg" shape-rendering="geometricPrecision" text-rendering="geometricPrecision" image-rendering="optimizeQuality" fill-rule="evenodd" clip-rule="evenodd" viewBox="0 0 512 365.27"><path fill-rule="nonzero" d="M156.17 14.05C169.85 3.54 181.84-1.56 193.1.42c11.49 2.01 21.14 11.08 29.68 28.84l.27.66c6.47 17.98 15.51 29.99 26.54 37.39 10.98 7.36 24.19 10.31 38.96 10.14 4.31-.04 9.16-.69 14.03-1.33 15.14-2.02 30.58-4.07 43 7.99 7.91 7.68 8.74 17.6 9.95 32.1l.31 3.71.03.76c1.22 27.73 7.15 63.93 20.92 92.3 9.83 20.25 23.64 36.36 42.51 41.83 8.79 2.56 19.33 2.18 29.7 1.81 18.63-.67 36.81-1.32 49.95 12.81 3.21 3.45 5.68 7.61 7.56 12.45 1.76 4.49 3.03 9.62 3.97 15.34.31 1.86.55 3.74.72 5.65.45.86.73 1.84.79 2.87.06 1.08-.13 2.11-.52 3.04.05 7.76-1.2 15.53-4.18 22.44-3.96 9.19-10.85 16.84-21.59 21.05-8.72 3.43-25.78 6-44.32 7.77-25.5 2.44-54.22 3.44-67.15 3.09-44.62-1.19-77.38-8.91-104.76-24.01-27.39-15.11-49.09-37.43-71.67-67.84-26.74-36.02-32.98-40.7-54.91-57.13-5.03-3.76-10.82-8.1-17.28-13.1-18.58-14.36-37.48-31.92-51.21-50.41-10.09-13.58-17.46-27.76-20.02-41.71-2.72-14.72-.18-29.03 9.84-41.99 3.6-4.65 8.16-9.1 13.78-13.27 4.04-3 8.84-5.75 14.13-8.29 5.23-2.51 10.79-4.78 16.48-6.86 5.33-1.95 9.31-3.33 12.68-4.49 8.73-3.01 13.45-4.64 19.61-8.59 1.84-1.18 3.93-2.65 6.39-4.48 2.67-1.99 5.47-4.18 8.58-6.68l.3-.23zm66.51 333.14c4.99 0 9.04 4.05 9.04 9.04 0 4.99-4.05 9.04-9.04 9.04h-36.14c-4.99 0-9.04-4.05-9.04-9.04 0-4.99 4.05-9.04 9.04-9.04h36.14zm-90.62 0c4.99 0 9.04 4.05 9.04 9.04 0 4.99-4.05 9.04-9.04 9.04H9.04c-4.99 0-9.04-4.05-9.04-9.04 0-4.99 4.05-9.04 9.04-9.04h123.02zm36.49-59.23c4.99 0 9.04 4.05 9.04 9.04 0 4.99-4.05 9.04-9.04 9.04H9.04C4.05 306.04 0 301.99 0 297c0-4.99 4.05-9.04 9.04-9.04h159.51zm-56.15-59.23c4.99 0 9.04 4.05 9.04 9.04 0 4.99-4.05 9.04-9.04 9.04H92.71c-4.99 0-9.04-4.05-9.04-9.04 0-4.99 4.05-9.04 9.04-9.04h19.69zm-59.13 0c4.99 0 9.05 4.05 9.05 9.04 0 4.99-4.06 9.04-9.05 9.04H9.04c-4.99 0-9.04-4.05-9.04-9.04 0-4.99 4.05-9.04 9.04-9.04h44.23zM35.78 169.5c4.99 0 9.04 4.05 9.04 9.04 0 4.99-4.05 9.04-9.04 9.04H9.04c-4.99 0-9.04-4.05-9.04-9.04 0-4.99 4.05-9.04 9.04-9.04h26.74zm129-144.48 8.51 20.54-32.18 17.48-10.9-17.31-4.38 1.52c-3.57 1.23-7.75 2.67-12.41 4.38-5.54 2.03-10.74 4.13-15.28 6.32-2.68 1.28-5.2 2.62-7.51 4.02 4.78 11.02 10.24 21.4 16.33 31.14 6.78 10.85 14.31 20.85 22.52 30.02 7 7.81 13.58 13.93 19.8 19 6.16 5.01 12.08 9.06 17.73 12.69 36.08 23.21 47.53 42 60.39 63.1 7.98 13.09 16.54 27.13 32.48 43.74 14.4 15.01 29.47 26.32 45.41 34.12 15.85 7.76 32.66 12.12 50.64 13.28 26.88 1.75 61.99-1.82 95.71-5.25 15.63-1.58 30.98-3.14 45.11-4.14l-.03-.21c-.78-4.74-1.81-8.93-3.21-12.5-1.26-3.23-2.83-5.92-4.77-8.02-8.82-9.48-23.85-8.94-39.25-8.39-11.46.41-23.11.83-34.07-2.35-20.84-6.05-36.29-21.86-47.5-42.04-7.62 5.77-15.09 9.66-22.63 11.32-9.08 2.01-17.82.83-26.46-4.05-5.15-2.92-6.95-9.48-4.03-14.63s9.47-6.95 14.62-4.03c3.72 2.1 7.44 2.62 11.25 1.78 4.72-1.05 9.98-4.06 15.81-8.7.72-.56 1.48-1.02 2.27-1.38-1.23-3.17-2.39-6.4-3.47-9.66-6.43 4.4-12.77 7.41-19.16 8.82-9.08 2.01-17.82.83-26.46-4.06-5.15-2.92-6.96-9.47-4.03-14.62 2.92-5.15 9.47-6.96 14.62-4.04 3.72 2.11 7.44 2.63 11.25 1.78 4.72-1.04 9.98-4.05 15.81-8.69.59-.47 1.21-.87 1.85-1.19-1.15-5.03-2.16-10.06-3.02-15.04-6.44 4.41-12.79 7.42-19.19 8.84-9.08 2.01-17.83.83-26.46-4.06-5.15-2.92-6.96-9.47-4.04-14.62 2.93-5.15 9.48-6.96 14.63-4.04 3.72 2.1 7.43 2.63 11.25 1.78 4.72-1.04 9.98-4.06 15.81-8.69a10.68 10.68 0 0 1 4.9-2.19c-.52-5.36-.88-10.55-1.1-15.49l-.34-3.94c-.95-11.42-1.61-19.23-5.75-23.25-7.56-7.35-19.63-5.75-31.47-4.17-5.24.7-10.47 1.39-15.72 1.45-17.48.19-33.32-3.44-46.83-12.5-13.37-8.97-24.21-23.11-31.76-43.92-6.34-13.07-12.61-19.6-19.37-20.78-6.92-1.22-15.45 2.8-25.92 10.83zm332.56 288.59c-13.92.98-28.99 2.52-44.34 4.08-34.3 3.49-70.03 7.12-97.95 5.31-19.77-1.29-38.32-6.11-55.87-14.71-17.47-8.55-33.84-20.79-49.36-36.96-17.02-17.73-25.98-32.44-34.33-46.15-11.97-19.64-22.64-37.14-56.02-58.61-5.94-3.82-12.23-8.12-18.99-13.63-6.71-5.46-13.81-12.08-21.38-20.52a230.632 230.632 0 0 1-24-31.93c-5.79-9.27-11.06-19.14-15.78-29.63a48.494 48.494 0 0 0-4.06 4.6c-7.34 9.49-9.18 20.05-7.17 30.96 2.15 11.67 8.6 23.93 17.51 35.92 12.89 17.35 30.83 33.99 48.53 47.68 7 5.41 12.43 9.48 17.12 12.99 23.22 17.4 29.82 22.34 57.75 59.97 21.41 28.84 41.8 49.89 67.2 63.9 25.41 14.02 56.16 21.19 98.36 22.32 12.54.34 40.52-.65 65.5-3.04 17.38-1.66 33.11-3.96 40.56-6.89 6.85-2.69 11.27-7.63 13.83-13.57 1.6-3.72 2.52-7.84 2.89-12.09z" fill="#ffffff"/></svg>