<svg xmlns="http://www.w3.org/2000/svg" xmlns:xlink="http://www.w3.org/1999/xlink" version="1.1" id="Layer_1" x="0px" y="0px" viewBox="0 0 122.88 121.66" style="enable-background:new 0 0 122.88 121.66" xml:space="preserve"><style type="text/css">.st0{fill-rule:evenodd;clip-rule:evenodd;}</style><g><path class="st0" d="M7.21,96.55l2.84,2.84l23.32-23.32l-4-4c-3.38-3.38-4.05-8.48-2.01-12.54l7.9,7.9l66.52-66.52 c0.3-0.3,0.71-0.45,1.11-0.42L121.4,0c0.8-0.02,1.46,0.61,1.48,1.41c0,0.03,0,0.06,0,0.09h0l-0.7,18.41 c-0.01,0.38-0.17,0.72-0.42,0.97l0,0L55.24,87.41l7.05,7.05c-4.06,2.04-9.16,1.37-12.54-2.01l-4-4l-23.32,23.32l2.68,2.68 c1.64,1.64,1.64,4.33,0,5.98l0,0c-1.64,1.64-4.33,1.64-5.98,0L1.23,102.52c-1.64-1.64-1.64-4.33,0-5.98h0 C2.88,94.9,5.57,94.9,7.21,96.55L7.21,96.55z M45.22,75.4l60.91-60.91l0,0c0.56-0.56,1.48-0.57,2.05,0 c0.57,0.56,0.57,1.48,0.01,2.05l0,0l0,0L47.27,77.45l6.91,6.91l65.13-65.13l0.62-16.29l-16.49,0.43L38.31,68.49L45.22,75.4 L45.22,75.4z" fill="#ffffff"/></g></svg>