<svg xmlns="http://www.w3.org/2000/svg" id="Layer_1" data-name="Layer 1" viewBox="0 0 122.88 55.34"><title>toggle-turn-on</title><path d="M94.71,4.09h.5a23.63,23.63,0,0,1,23.58,23.58v.61c0,.1,0,.2,0,.3h0c0,.1,0,.2,0,.3h0v.3h0l0,.3h0a2.83,2.83,0,0,1,0,.29h0c0,.3-.06.6-.1.89h0a23.71,23.71,0,0,1-21.28,20.5h0l-.29,0h0l-.3,0h0l-.3,0h0l-.3,0H94.71a23.58,23.58,0,0,1,0-47.16ZM22,27.68c0-3.4.64-5.89,1.92-7.45s3.57-2.34,6.9-2.34,5.62.78,6.89,2.34,1.92,4.05,1.92,7.45A19.05,19.05,0,0,1,39.18,32a7.77,7.77,0,0,1-1.39,3,5.59,5.59,0,0,1-2.71,1.88,13.3,13.3,0,0,1-4.3.6,13.22,13.22,0,0,1-4.3-.6A5.57,5.57,0,0,1,23.76,35a7.77,7.77,0,0,1-1.39-3A19.05,19.05,0,0,1,22,27.68Zm6.43-3.1v7.76h2.47a4.13,4.13,0,0,0,1.78-.28c.37-.19.55-.62.55-1.3V23h-2.5a4,4,0,0,0-1.75.29c-.37.19-.55.62-.55,1.3ZM53.08,37l-4.57-6.63a3.23,3.23,0,0,1-.29-1.43H48.1V37h-6V18.34h5.62L52.31,25a3,3,0,0,1,.3,1.43h.12V18.34h6V37ZM95.21,0H27.67a27.67,27.67,0,0,0,0,55.34H96.28l.35,0h0l.35,0h0l.35,0h0l.35,0h0a27.8,27.8,0,0,0,24.93-23.7h0q0-.33.09-.69h0c0-.23,0-.46.07-.69h0l0-.35h0c0-.12,0-.23,0-.35h0l0-.35h0c0-.12,0-.24,0-.36h0c0-.11,0-.23,0-.35h0c0-.12,0-.24,0-.35v-.36A27.76,27.76,0,0,0,95.21,0Z" fill="#ffffff"/></svg>