<svg xmlns="http://www.w3.org/2000/svg" id="Layer_1" data-name="Layer 1" viewBox="0 0 122.88 55.66"><title>toggle-turn-off</title><path d="M27.83,0H95.05a27.8,27.8,0,0,1,19.66,47.48l-.11.1a27.71,27.71,0,0,1-19.55,8.08H26.76l-.36,0-.35,0-.35,0h0l-.35,0-.35,0-.35,0-.35,0-.35,0-.34,0-.35-.06-.34-.06h0l-.34-.06-.34-.07L21.9,55l-.33-.08-.34-.08h0l-.33-.08h0l-.33-.09h0l-.33-.09h0l-.33-.1h0l-.33-.1h0l-.32-.1h0l-.33-.11h0l-.32-.11h0L18.29,54h0L18,53.84h0l-.31-.12h0l-.31-.13h0L17,53.46h0l-.31-.13h0l-.62-.28h0q-.92-.44-1.8-.93h0L14,52h0c-.29-.17-.58-.34-.86-.52h0l-.28-.18h0l-.56-.37h0l-.55-.38h0a27.22,27.22,0,0,1-3.57-3l-.06,0A27.9,27.9,0,0,1,.64,33.76v0l-.14-.67,0-.31v0l0-.31v0l-.1-.66v0l0-.32v0l0-.32v0l0-.32v0l0-.33v0l0-.34h0l0-.34h0l0-.34H0l0-.35H0v-.34H0v-.35H0V26.76l0-.36H0l0-.35,0-.35,0-.35h0l0-.35h0l0-.34h0l.05-.35,0-.35,0-.34h0l.06-.35h0l.06-.34h0l.06-.34.07-.34.07-.34h0l.08-.34h0l.08-.33h0l.08-.33h0L1,20.56H1l.09-.33h0l.1-.32h0l.1-.32h0l.1-.33h0l.11-.32h0l.11-.32h0l.12-.32L1.82,18h0l.12-.32h0l.13-.31h0L2.2,17l.13-.31h0l.14-.31.14-.3.15-.31.14-.3.16-.3.15-.3.16-.3.17-.29L3.7,14h0l.17-.29h0L4,13.43H4l.18-.29.18-.28.18-.28h0l.19-.28L5,12l.19-.27.2-.28h0l.2-.26.2-.27L6,10.67H6l.2-.26.21-.26.22-.25.22-.26L7,9.39l.22-.25.23-.24.23-.25.23-.24.23-.24A27.89,27.89,0,0,1,22.28.56l.3-.06h0l.3,0h0l.31,0h0l.32,0h0l.31,0h0l.32,0h0l.32,0h0l.32,0h0l.32,0h0l.34,0h0l.34,0h0l.34,0h0l.35,0h1.07Zm33.9,27.84q0-4.93,1.85-7.2c1.23-1.51,3.46-2.26,6.67-2.26s5.43.75,6.66,2.26,1.85,3.91,1.85,7.2A18.55,18.55,0,0,1,78.37,32,7.61,7.61,0,0,1,77,34.89,5.47,5.47,0,0,1,74.4,36.7a15.17,15.17,0,0,1-8.31,0,5.44,5.44,0,0,1-2.62-1.81A7.48,7.48,0,0,1,62.12,32a19.17,19.17,0,0,1-.39-4.13Zm6.21-3v7.51h2.39a4,4,0,0,0,1.72-.28c.36-.18.54-.6.54-1.25V23.31H70.16a3.94,3.94,0,0,0-1.69.28c-.35.18-.53.6-.53,1.25Zm23.52,5.31H86.55v6.7H80.78v-18H92.61l-.72,4.36H86.55v2.68h4.91v4.3Zm13.56,0h-4.91v6.7H94.34v-18h11.83l-.72,4.36h-5.34v2.68H105v4.3ZM41.38,3.52a28.6,28.6,0,0,1,6.15,4.65,27.72,27.72,0,0,1,0,39.31,28.08,28.08,0,0,1-6.15,4.66H95.05a24.28,24.28,0,0,0,17.09-7.06l.08-.09A24.31,24.31,0,0,0,95.05,3.52Zm-19.61.77L21,4.52h0A24.42,24.42,0,0,0,3.52,27.83v.31h0v.31h0v.3h0v.3h0l0,.3h0l0,.3h0l0,.3h0l0,.29v0l0,.28v0l0,.29h0l0,.29v0l0,.28v0l0,.28v0l0,.27v0l.06.27v0l0,.26v0l.06.27v0l.06.26v0l.06.26v0l.06.26v0l.07.25v0l.07.24v0c.08.28.16.55.25.82v0l.08.24,0,0v0l.08.24.09.24v0l.09.23,0,0c.14.37.29.74.45,1.1l.09.21,0,.06h0c.16.33.31.66.48,1l0,.06.11.2,0,.06a24.72,24.72,0,0,0,1.53,2.51L8,41.8l0,.08A26.4,26.4,0,0,0,10.63,45l0,0a24.41,24.41,0,0,0,10.52,6.22h0l.28.08h0l.28.08h0l.28.07h0l.29.07h0l.29.07h0l.3.06h0l.29.06h0l.29.06h0l.3.05h0l.3,0h0l.3,0h0l.3,0h0l.3,0h0l.3,0h0l.31,0h0l.31,0h0l.3,0h0l.3,0h1.29a24.31,24.31,0,0,0,0-48.62H26.58l-.3,0h0l-.3,0h0l-.3,0h0l-.31,0-.29,0h0l-.29,0h0l-.29,0h0l-.28,0h0l-.28.05h0l-.3,0L23.27,4h0L23,4l-.27.06h0l-.26.06h0l-.26.06h0l-.26.06Z" fill="#ffffff"/></svg>