<svg xmlns="http://www.w3.org/2000/svg" xmlns:xlink="http://www.w3.org/1999/xlink" version="1.1" id="Layer_1" x="0px" y="0px" width="122.88px" height="94.434px" viewBox="0 0 122.88 94.434" enable-background="new 0 0 122.88 94.434" xml:space="preserve"><g><path d="M100.206,40.309c1.49,0,2.949,0.147,4.363,0.427c1.446,0.287,2.847,0.715,4.186,1.27l0.002,0 c1.361,0.563,2.657,1.259,3.87,2.07c1.224,0.817,2.36,1.752,3.396,2.785h0.002c1.031,1.031,1.965,2.17,2.785,3.397 c0.81,1.211,1.506,2.508,2.07,3.872c0.555,1.339,0.983,2.74,1.271,4.188c0.28,1.414,0.428,2.872,0.428,4.362 s-0.147,2.949-0.428,4.362c-0.287,1.447-0.716,2.848-1.271,4.187c-0.564,1.365-1.261,2.661-2.07,3.873 c-0.82,1.227-1.754,2.365-2.785,3.396c-1.031,1.03-2.169,1.965-3.396,2.785c-1.214,0.811-2.509,1.507-3.871,2.071l-0.026,0.01 c-1.331,0.55-2.724,0.975-4.162,1.261c-1.414,0.28-2.873,0.427-4.362,0.427c-1.49,0-2.949-0.146-4.363-0.427 c-1.446-0.287-2.848-0.716-4.187-1.271l-0.001-0.001c-1.362-0.563-2.658-1.26-3.872-2.07c-1.228-0.82-2.364-1.755-3.396-2.785 c-2.059-2.059-3.72-4.523-4.856-7.27c-0.555-1.339-0.983-2.739-1.271-4.187c-0.28-1.413-0.428-2.872-0.428-4.362 s0.147-2.948,0.428-4.362c0.287-1.447,0.716-2.849,1.271-4.188c0.565-1.365,1.261-2.661,2.07-3.872 c0.82-1.229,1.755-2.366,2.786-3.397l0.028-0.026c1.027-1.023,2.155-1.949,3.368-2.759c1.214-0.811,2.509-1.507,3.87-2.071 l0.026-0.01c1.332-0.55,2.724-0.975,4.161-1.26C97.257,40.456,98.716,40.309,100.206,40.309L100.206,40.309z M114.398,53.438 L90.975,76.861c0.483,0.316,0.984,0.607,1.499,0.872c0.689,0.355,1.404,0.664,2.14,0.921c0.882,0.309,1.799,0.546,2.746,0.706 c0.921,0.155,1.872,0.236,2.847,0.236c1.134,0,2.24-0.111,3.307-0.322c1.097-0.217,2.154-0.54,3.161-0.957 c1.031-0.428,2.011-0.953,2.924-1.565c0.922-0.617,1.784-1.327,2.574-2.117s1.5-1.652,2.116-2.573 c0.612-0.913,1.139-1.893,1.565-2.925c0.418-1.005,0.74-2.063,0.957-3.158c0.212-1.067,0.322-2.174,0.322-3.309 c0-0.978-0.081-1.93-0.235-2.85c-0.16-0.947-0.396-1.864-0.704-2.744c-0.258-0.734-0.566-1.449-0.921-2.139 C115.007,54.423,114.715,53.923,114.398,53.438L114.398,53.438z M86.945,73.198l23.793-23.792c-0.568-0.451-1.17-0.87-1.803-1.251 c-0.784-0.473-1.603-0.882-2.448-1.219c-0.978-0.39-2.004-0.691-3.069-0.894c-1.034-0.197-2.108-0.3-3.212-0.3 c-1.135,0-2.241,0.111-3.309,0.322c-1.096,0.217-2.153,0.541-3.159,0.958l-0.025,0.01c-1.02,0.424-1.989,0.946-2.897,1.555 c-0.926,0.619-1.789,1.329-2.576,2.116c-0.789,0.79-1.499,1.653-2.115,2.574c-0.612,0.913-1.139,1.893-1.566,2.925 c-0.417,1.006-0.74,2.063-0.957,3.159c-0.211,1.067-0.322,2.174-0.322,3.31c0,1.1,0.104,2.171,0.301,3.202 c0.203,1.066,0.505,2.093,0.895,3.068c0.338,0.847,0.746,1.667,1.219,2.451C86.072,72.021,86.491,72.625,86.945,73.198 L86.945,73.198z M7.26,30.398C6.331,31.146,5.2,31.47,4.099,31.38c-1.126-0.092-2.218-0.612-3.028-1.549l-0.014-0.017l-0.001,0.001 c-0.79-0.942-1.132-2.104-1.041-3.233c0.091-1.126,0.612-2.217,1.549-3.028l0.005-0.004c9.108-7.815,18.823-13.735,28.875-17.684 C40.563,1.89,51.026-0.088,61.561,0.003c10.389,0.093,20.81,2.2,31.001,6.392c9.898,4.07,19.579,10.107,28.8,18.176l0.008,0.007 l0.003-0.002c0.916,0.814,1.425,1.927,1.498,3.066c0.074,1.135-0.285,2.295-1.103,3.215c-0.813,0.914-1.92,1.422-3.054,1.498 c-1.139,0.077-2.304-0.282-3.227-1.102l-0.052-0.049c-8.413-7.333-17.197-12.818-26.138-16.515 c-9.189-3.8-18.545-5.713-27.83-5.803c-9.404-0.089-18.784,1.702-27.897,5.302c-9.024,3.565-17.781,8.902-26.034,15.94 C7.458,30.231,7.365,30.322,7.26,30.398L7.26,30.398z M61.441,73.202c2.927,0,5.585,1.188,7.509,3.111 c1.919,1.918,3.107,4.568,3.107,7.505c0,2.926-1.187,5.584-3.111,7.508c-1.918,1.918-4.568,3.107-7.505,3.107 c-2.926,0-5.583-1.188-7.508-3.111c-1.918-1.918-3.107-4.568-3.107-7.504c0-2.926,1.188-5.584,3.111-7.509 C55.855,74.393,58.506,73.202,61.441,73.202L61.441,73.202z M41.37,65.713l-0.12,0.091c-0.924,0.696-2.044,0.984-3.121,0.875 c-1.12-0.114-2.196-0.65-2.963-1.597l-0.062-0.075c-0.024-0.029-0.045-0.06-0.066-0.09c-0.693-0.922-0.979-2.039-0.87-3.113 c0.114-1.12,0.651-2.196,1.598-2.964l0.032-0.025c4.01-3.271,8.205-5.753,12.504-7.427c4.336-1.688,8.778-2.551,13.244-2.569 c1.682-0.008,3.355,0.105,5.015,0.34c1.657,0.234,3.318,0.591,4.979,1.07c0.691,0.2,1.089,0.923,0.889,1.613l-0.028,0.086 l0.002,0.001c-0.343,0.938-0.636,1.89-0.876,2.854c-0.24,0.968-0.431,1.955-0.569,2.958c-0.099,0.713-0.757,1.212-1.471,1.113 c-0.066-0.01-0.131-0.023-0.193-0.042c-1.283-0.382-2.567-0.668-3.849-0.858s-2.567-0.285-3.857-0.285l-0.106-0.004 c-3.365,0.031-6.743,0.715-10.083,2.035c-3.377,1.335-6.705,3.315-9.928,5.924C41.437,65.655,41.404,65.685,41.37,65.713 L41.37,65.713z M24.788,49.075c-0.915,0.813-2.068,1.172-3.197,1.107c-1.136-0.064-2.25-0.561-3.069-1.457l-0.012-0.013 l-0.003,0.003c-0.813-0.915-1.172-2.069-1.108-3.197c0.064-1.136,0.562-2.25,1.458-3.069l0.016-0.015 c6.841-6.052,13.887-10.621,21.067-13.644c7.165-3.016,14.458-4.492,21.811-4.363c4.698,0.085,9.386,0.819,14.041,2.218 c4.601,1.383,9.178,3.415,13.71,6.11c0.621,0.366,0.826,1.167,0.46,1.787c-0.171,0.289-0.436,0.488-0.732,0.581 c-1.116,0.407-2.201,0.885-3.251,1.427c-1.08,0.558-2.116,1.181-3.103,1.862c-0.406,0.28-0.916,0.299-1.327,0.091 c-3.318-1.682-6.639-2.948-9.949-3.809c-3.343-0.869-6.679-1.328-9.997-1.386c-6.176-0.104-12.354,1.178-18.477,3.794 C36.936,39.75,30.804,43.758,24.788,49.075L24.788,49.075z" fill="#ffffff"/></g></svg>