<svg xmlns="http://www.w3.org/2000/svg" shape-rendering="geometricPrecision" text-rendering="geometricPrecision" image-rendering="optimizeQuality" fill-rule="evenodd" clip-rule="evenodd" viewBox="0 0 512 509.64"><path fill="#fff" d="M115.612 0h280.776C459.975 0 512 52.025 512 115.612v278.416c0 63.587-52.025 115.612-115.612 115.612H115.612C52.025 509.64 0 457.615 0 394.028V115.612C0 52.025 52.025 0 115.612 0zm208.127 148.355h36.12l-78.913 90.197 92.838 122.735h-72.695l-56.932-74.439-65.145 74.439h-36.146l84.407-96.474-89.058-116.458h74.535l51.464 68.04 59.525-68.04zM311.06 339.666h20.018L201.876 168.842h-21.478L311.06 339.666z"/></svg>