<svg version="1.1" id="Layer_1" xmlns="http://www.w3.org/2000/svg" xmlns:xlink="http://www.w3.org/1999/xlink" x="0px" y="0px" viewBox="0 0 122.88 108.13" style="enable-background:new 0 0 122.88 108.13" xml:space="preserve" transform="matrix(1, 0, 0, 1, 0, 0)"><style type="text/css"><![CDATA[
	.st0{fill-rule:evenodd;clip-rule:evenodd;}
]]></style><g><path class="st0" d="M0,12.78C6.44,8.97,13.56,5.2,17.58,5.29c2.15,0.05,4.24,0.62,6.27,1.72c0.7-0.82,1.66-1.8,2.92-2.99 c1.73-1.64,1.87-4.18,3.78-4.01c0.74,0.06,8.83,3.67,8.83,4.94c0,5.59-1.48,5.75-3.79,10.4c-0.22,0.44-0.69,0.77-1.32,0.99 c0.26,0.23,0.52,0.47,0.77,0.71l2.73,17.78l1.28,25.85l3.37-23.04l-4.11-17.32c6.36,6.84,11.62,15.52,15.19,27.02 c2.83,0.2,5.95,1.42,9.19,3.51l2.4,15.63L61.7,92.31l7.4-25.58l-3.2-13.59c8.09,6.42,16.55,17.61,22.78,31.01 c13.48,0.96,18.02,2.11,19.43,19.32c4.63,3.03-2.07,4.66-4.96,4.66H0V12.78L0,12.78z M116.52,87.9c-1,0.09-5.18-0.63-5.18,0.89 c0,1.92-0.94,1.69,1.64,3.64c1.42,1.07,0.36,1.15,3.08,0.72c1.11-0.17,2.83-2.74,1.56-4.15C117.08,88.41,117.1,87.85,116.52,87.9 L116.52,87.9z M119.9,69.2c-1.92,0.17-9.94-1.21-9.94,1.71c0,3.69-1.81,3.25,3.15,7c2.73,2.05,0.69,2.2,5.91,1.38 c2.14-0.34,5.44-5.26,2.99-7.97C120.98,70.18,121.01,69.1,119.9,69.2L119.9,69.2z M97.85,73.11c0.28,1.61,3.17,7.85,0.78,8.49 c-3.01,0.81-2.26,2.19-6.4-1.04c-2.27-1.78-1.95-0.08-2.42-4.52c-0.19-1.82,3.1-5.59,5.85-4.19 C96.82,72.44,97.69,72.18,97.85,73.11L97.85,73.11z M67.05,41.34c1.04,0.09,5.37-0.66,5.37,0.93c0,1.99,0.98,1.75-1.7,3.78 c-1.47,1.11-0.37,1.19-3.19,0.75c-1.15-0.18-2.94-2.84-1.62-4.3C66.47,41.87,66.45,41.29,67.05,41.34L67.05,41.34z M91.3,41.78 c4.99-0.43,5.81,2.14,9.48,4.33c1.9,1.13,4.83,3.27,4.83,5.71c0,2.11,0.18,3.29-0.3,5.29c-1.34,5.59-8.61,8.14-13.53,5.08 c-3.68-2.29-1.22-0.04-4.09-3.58c-2.31-2.84-5.56,0.12-5.56-8.97c0-3.31,1.29-4.32,4.15-5.91c1.26-0.7,2.94-0.85,4.82-1.9 L91.3,41.78L91.3,41.78z M99.21,20.83c11.63,2.76,14.63-8.08,16.7,1.77c2.25,10.69-2.43,7.09-5.56,13.71 c-0.32,0.69-10.15,2.06-12.64-0.43c-4.16-4.16-4.84-11.96,0.95-14.91L99.21,20.83L99.21,20.83z M52.18,20.52 c3.39-0.2,8.87-0.6,8.87,1.96c0,4.1,2.01,3.61-3.5,7.76c-3.02,2.28-0.76,2.44-6.56,1.54c-2.37-0.37-6.03-5.84-3.32-8.84 C50.25,20.08,47.93,20.77,52.18,20.52L52.18,20.52z M67.48,11.39c4.92-5.52,11.56,0.57,15.81,0.18c3.21-0.29,4,8.93,2.15,12.09 c-1.67,2.86,2.68,7.3-10.17,6.62c-6.11-0.32-6.42,0.44-9.62-5.79C62.95,19.21,63.12,15.61,67.48,11.39L67.48,11.39z" fill="#ffffff"/></g></svg>