<svg version="1.1" id="Layer_1" xmlns="http://www.w3.org/2000/svg" xmlns:xlink="http://www.w3.org/1999/xlink" x="0px" y="0px" viewBox="0 0 78.28 122.88" style="enable-background:new 0 0 78.28 122.88" xml:space="preserve"><style type="text/css">.st0{fill-rule:evenodd;clip-rule:evenodd;}</style><g><path class="st0" d="M3.9,35.42c0.67-0.58,1.29-0.98,2.07-1.03c0.4-0.03,0.81,0.02,1.24,0.14c1.12,0.31,1.55,0.82,2.4,1.56 c4.19,3.69,8.31,7.78,12.32,12.48c2.07,1.9,2.54,3.88,0.92,5.78l-2.96,3.31c-1.5,1.5-3.41,1.42-5.49-0.08 C5.04,49.71-6.03,45.65,3.9,35.42L3.9,35.42z M3.92,53.35c0.23,6.91,1.5,11.13,3.93,15.73c3.58,4.63,6.5,9.07,8.09,13.13 c1.11,2.84,2.02,5.52,3.24,8.39l10.48,32.27h48.19L55.76,83.94c-1.69-2.72-2.05-2.06,0.17-4.13c4.51-4.23,8.38-8.83,11.81-13.62 c9.43-13.18,14.46-18.08,6.83-31.68l-5.74-10.48c-7.02-12.68-21.5-0.99-32.35,5.23c-3.17,3.94,3.99,12.37,10.3,10l8.15-3.06 l2.41,5.71C37.4,39.29,33.34,52.16,31.95,68.97c-1.99-10.31-0.31-18.56,3.82-22.75c-3.55,2.61-7.29,6.03-10.72,10.29 c-0.83,1.03-1.64,2.11-2.43,3.24c-4.18,5.58-8.4,1.72-12.4-1.42C8.08,56.65,5.9,54.85,3.92,53.35L3.92,53.35z M47.47,0.01 c0.42,0.03,0.84,0.15,1.26,0.33c2.12,0.94,4.57,5.22,5.63,7.19c0.68,1.25,2.6,4.65,4.16,7.52l-13.39,5.4 c-2.15-3.47-4.08-7.03-6.03-9.87c-1.18-1.53-1.37-3.07-0.72-4.56c0.76-1.73,2.67-3.03,4.24-4C43.72,1.35,46.25-0.1,47.47,0.01 L47.47,0.01z M31.59,8.91c0.42,0.01,0.84,0.09,1.28,0.25c1.14,0.42,1.54,0.99,2.35,1.84c1.34,1.41,2.56,3.12,3.72,4.98 c0.65,1.04,2.09,3.26,3.59,5.63c-4.62,2.08-10.85,3.2-11.06,9.13c-2.73-3.72-5.17-7.7-7.56-10.76c-1.27-1.46-1.56-2.98-1-4.51 C23.87,12.86,29,8.86,31.59,8.91L31.59,8.91z M17.3,20.88c0.4-0.03,0.81,0.02,1.24,0.14c1.12,0.31,1.55,0.82,2.4,1.56 c1.39,1.23,2.69,2.77,3.95,4.45c1.67,2.22,8.06,10.36,8.97,12.23c0.62,1.28,0.69,2.61-0.47,3.97l-3.8,3.69 c-1.5,1.5-3.41,1.42-5.49-0.08c-4.86-4.69-9.31-10.57-13.21-14.76c-1.33-1.28-1.73-2.71-1.32-4.22 C10.21,25.46,14.88,21.04,17.3,20.88L17.3,20.88z" fill="#ffffff"/></g></svg>