<?xml version="1.0" encoding="utf-8"?><svg version="1.1" id="Layer_1" xmlns="http://www.w3.org/2000/svg" xmlns:xlink="http://www.w3.org/1999/xlink" x="0px" y="0px" viewBox="0 0 122.88 102.15" style="enable-background:new 0 0 122.88 102.15" xml:space="preserve"><style type="text/css"><![CDATA[
	.st0{fill-rule:evenodd;clip-rule:evenodd;fill:#DA5652;}
	.st1{fill-rule:evenodd;clip-rule:evenodd;fill:#393939;}
]]></style><g><path class="st1" d="M57.86,16.35C65.48,8.4,70.81,1.54,82.55,0.19c22.04-2.53,42.31,20.03,31.18,42.24 c-0.17,0.34-0.36,0.69-0.55,1.04h-8.11V30.69c0-3.22-1.31-6.14-3.43-8.26c-2.11-2.11-5.04-3.43-8.26-3.43H78.64 c-3.2,0-6.13,1.32-8.25,3.45c-2.11,2.12-3.42,5.03-3.42,8.23v12.78H54.17c-3.22,0-6.14,1.31-8.26,3.43s-3.43,5.04-3.43,8.25v14.76 c0,3.22,1.31,6.14,3.43,8.26s5.04,3.43,8.26,3.43h12.78v11.53l-9.09,9.01L44.19,88.98C27.74,73.14,0.9,53.19,0.02,28.48 C-0.6,11.17,13.06,0.08,28.77,0.28C42.81,0.47,48.72,7.45,57.86,16.35L57.86,16.35L57.86,16.35L57.86,16.35z"/><path class="st0" d="M78.64,25.68h14.76c2.76,0,5.01,2.26,5.01,5.01v19.46h19.46c2.76,0,5.01,2.26,5.01,5.01v14.75 c0,2.76-2.26,5.02-5.01,5.02H98.41v19.03c0,2.76-2.26,5.01-5.01,5.01H78.64c-2.76,0-5.01-2.26-5.01-5.01V74.93H54.17 c-2.76,0-5.01-2.26-5.01-5.02V55.15c0-2.76,2.26-5.01,5.01-5.01h19.46V30.69C73.63,27.93,75.88,25.68,78.64,25.68L78.64,25.68 L78.64,25.68z"/></g></svg>